<?xml version="1.0" encoding="utf-8"?>
<!-- Generator: Adobe Illustrator 16.0.0, SVG Export Plug-In . SVG Version: 6.00 Build 0)  -->
<!DOCTYPE svg PUBLIC "-//W3C//DTD SVG 1.1//EN" "http://www.w3.org/Graphics/SVG/1.1/DTD/svg11.dtd">
<svg version="1.1" id="Capa_1" xmlns="http://www.w3.org/2000/svg" xmlns:xlink="http://www.w3.org/1999/xlink" x="0px" y="0px"
	 width="302px" height="85px" viewBox="0 0 302 85" enable-background="new 0 0 302 85" xml:space="preserve">
<path fill="#FFFFFF" d="M102.89,16.449c-0.729-0.166-1.404-0.484-1.947-0.902c-0.552-0.438-1-0.975-1.328-1.666
	c-0.318-0.662-0.445-1.47-0.445-2.439c0-0.528,0-1,0-1.457c0.004-0.393,0.004-0.803,0.004-1.18c0-0.34,0-0.704,0.012-1.067
	c0.018-0.334,0.018-0.659,0.018-1.043c0-1.094-0.008-1.965-0.029-2.691c-0.004-0.636-0.028-1.15-0.047-1.479
	c0.252,0.026,0.518,0.026,0.816,0.051c0.279,0.034,0.555,0.062,0.836,0.062c0.282,0,0.562-0.028,0.844-0.062
	c0.272-0.024,0.584-0.024,0.834-0.051c-0.145,1.319-0.232,2.547-0.248,3.67c-0.002,1.131-0.035,2.271-0.035,3.417
	c0,1.258,0.076,2.253,0.265,2.995c0.168,0.775,0.422,1.352,0.776,1.74c0.335,0.436,0.761,0.732,1.262,0.822
	c0.51,0.151,1.081,0.247,1.736,0.247c0.825,0,1.451-0.247,1.917-0.633c0.461-0.42,0.815-0.956,1.051-1.631
	c0.245-0.653,0.364-1.452,0.411-2.331c0.071-0.844,0.101-1.8,0.101-2.707c0-0.936-0.016-1.862-0.041-2.812
	c-0.033-0.925-0.09-1.839-0.125-2.778c0.195,0.026,0.366,0.026,0.549,0.051c0.175,0.034,0.336,0.062,0.494,0.062
	c0.167,0,0.327-0.028,0.502-0.062c0.168-0.024,0.341-0.024,0.514-0.051c-0.031,0.298-0.058,0.676-0.092,1.181
	c-0.033,0.503-0.051,1.097-0.081,1.767c-0.047,0.631-0.061,1.382-0.094,2.148c-0.006,0.804-0.016,1.661-0.016,2.522
	c0,2.368-0.512,4.048-1.511,5.051c-1.021,1.027-2.507,1.539-4.474,1.539C104.458,16.731,103.665,16.617,102.89,16.449"/>
<path fill="#FFFFFF" d="M117.11,8.207c0.366-0.541,0.81-0.968,1.318-1.287c0.512-0.315,1.084-0.491,1.738-0.491
	c1.012,0,1.783,0.314,2.334,0.902c0.554,0.562,0.819,1.524,0.819,2.836c0,0.722-0.016,1.311-0.032,1.849
	c-0.028,0.534-0.037,1.046-0.037,1.57c0,0.433,0.009,0.924,0.036,1.41c0.006,0.508,0.018,1,0.059,1.459
	c-0.179-0.015-0.391-0.015-0.663-0.015h-0.843h-0.866c-0.29,0-0.498,0-0.669,0.015c0.094-0.686,0.147-1.516,0.179-2.48
	c0.027-0.939,0.041-2.053,0.041-3.245c0-0.885-0.148-1.498-0.43-1.904c-0.294-0.401-0.703-0.62-1.221-0.62
	c-0.61,0-1.068,0.28-1.339,0.807c-0.296,0.537-0.422,1.268-0.422,2.209v0.801c0,0.828,0,1.614,0.027,2.322
	c0.016,0.755,0.051,1.443,0.112,2.11c-0.176-0.015-0.392-0.015-0.642-0.015h-0.866h-0.874c-0.246,0-0.471,0-0.644,0.015
	c0.052-0.667,0.097-1.354,0.138-2.11c0-0.699,0.023-1.494,0.023-2.322v-0.801c0-0.816-0.023-1.622-0.023-2.341
	c-0.041-0.714-0.085-1.438-0.138-2.182c0.249,0.042,0.49,0.056,0.698,0.056c0.252,0.039,0.485,0.063,0.736,0.063
	c0.255,0,0.496-0.025,0.714-0.063c0.243,0,0.5-0.014,0.781-0.056l-0.096,1.506h0.052V8.207z"/>
<path fill="#FFFFFF" d="M126.102,1.742c0.312-0.323,0.709-0.478,1.132-0.478c0.456,0,0.818,0.155,1.134,0.478
	c0.313,0.304,0.483,0.662,0.483,1.13c0,0.444-0.17,0.829-0.483,1.131c-0.316,0.319-0.678,0.476-1.134,0.476
	c-0.423,0-0.82-0.157-1.132-0.476c-0.32-0.303-0.456-0.687-0.456-1.131C125.646,2.404,125.781,2.046,126.102,1.742 M125.835,8.877
	c-0.008-0.717-0.062-1.439-0.107-2.177c0.188,0.034,0.403,0.053,0.662,0.056c0.253,0.039,0.529,0.059,0.843,0.059
	c0.647,0,1.134-0.059,1.535-0.115c-0.088,0.738-0.126,1.459-0.16,2.177c-0.016,0.724-0.032,1.529-0.032,2.336v0.804
	c0,0.816,0.017,1.622,0.032,2.329c0.034,0.755,0.072,1.443,0.16,2.11c-0.192-0.015-0.411-0.015-0.667-0.015h-0.868h-0.843
	c-0.258,0-0.473,0-0.662,0.015c0.045-0.667,0.099-1.354,0.107-2.11c0.023-0.708,0.037-1.513,0.037-2.329v-0.804
	C125.872,10.407,125.859,9.602,125.835,8.877"/>
<path fill="#FFFFFF" d="M136.677,10.249c0.409-1.17,0.806-2.363,1.195-3.554c0.148,0.04,0.287,0.059,0.418,0.062
	c0.152,0.039,0.279,0.059,0.404,0.059c0.146,0,0.29-0.02,0.428-0.059c0.13-0.003,0.274-0.022,0.434-0.062
	c-0.209,0.543-0.469,1.138-0.793,1.836c-0.31,0.723-0.628,1.454-0.99,2.304c-0.35,0.837-0.687,1.73-1.049,2.702
	c-0.369,0.931-0.694,1.924-1.006,2.919c-0.177-0.015-0.377-0.015-0.56-0.015h-0.54h-0.535c-0.201,0-0.362,0-0.546,0.015
	c-0.281-0.749-0.57-1.619-0.913-2.537c-0.335-0.93-0.669-1.848-0.991-2.769c-0.325-0.901-0.633-1.723-0.922-2.507
	c-0.277-0.81-0.515-1.422-0.689-1.948c0.279,0.04,0.563,0.059,0.794,0.062c0.284,0.039,0.547,0.059,0.792,0.059
	c0.264,0,0.517-0.02,0.771-0.059c0.259-0.003,0.51-0.022,0.757-0.062c0.37,1.19,0.74,2.384,1.107,3.554
	c0.375,1.193,0.763,2.388,1.154,3.563h0.031C135.87,12.637,136.276,11.442,136.677,10.249"/>
<path fill="#FFFFFF" d="M143.458,13.141c0.096,0.49,0.278,0.878,0.488,1.205c0.227,0.351,0.518,0.644,0.848,0.805
	c0.356,0.245,0.777,0.324,1.224,0.324c0.934,0,1.762-0.324,2.489-0.911l0.251,0.201l-0.456,1.122
	c-0.348,0.235-0.732,0.466-1.217,0.598c-0.479,0.147-1.084,0.247-1.865,0.247c-0.661,0-1.291-0.115-1.882-0.283
	c-0.607-0.166-1.131-0.484-1.571-0.875c-0.457-0.435-0.815-0.967-1.082-1.615c-0.259-0.64-0.386-1.393-0.386-2.306
	c0-0.869,0.105-1.647,0.341-2.283c0.242-0.679,0.569-1.19,0.985-1.64c0.426-0.403,0.917-0.721,1.493-0.973
	c0.582-0.21,1.203-0.328,1.878-0.328c1.331,0,2.366,0.424,3.071,1.191c0.71,0.776,1.055,1.89,1.055,3.333v0.419
	c0,0.12,0,0.188-0.016,0.237h-5.825C143.284,12.179,143.342,12.668,143.458,13.141 M146.049,8.289
	c-0.23-0.623-0.611-0.93-1.131-0.93c-0.29,0-0.551,0.109-0.761,0.307c-0.2,0.207-0.352,0.469-0.48,0.788
	c-0.13,0.305-0.209,0.665-0.271,1.056c-0.063,0.4-0.101,0.799-0.122,1.214h3.127C146.388,9.665,146.253,8.855,146.049,8.289"/>
<path fill="#FFFFFF" d="M153.764,9.233c0.323-0.922,0.764-1.619,1.269-2.055c0.505-0.443,1.099-0.648,1.793-0.648h0.169h0.152
	c-0.033,0.178-0.078,0.393-0.1,0.648c-0.025,0.226-0.037,0.488-0.037,0.815v0.65v0.346c0,0.126,0.012,0.24,0.02,0.347l-0.165,0.174
	c-0.151-0.091-0.296-0.169-0.456-0.229c-0.176-0.048-0.377-0.083-0.575-0.083c-0.614,0-1.089,0.222-1.465,0.625
	c-0.341,0.385-0.519,0.852-0.519,1.4v0.801c0,0.828,0.008,1.623,0.024,2.322c0.021,0.755,0.088,1.443,0.142,2.11
	c-0.177-0.015-0.401-0.015-0.662-0.015h-0.844h-0.847c-0.263,0-0.499,0-0.676,0.015c0.065-0.667,0.105-1.354,0.126-2.11
	c0.018-0.699,0.021-1.494,0.021-2.322v-0.801c0-0.816-0.004-1.619-0.021-2.341c-0.021-0.714-0.061-1.438-0.126-2.176
	c0.225,0.037,0.442,0.05,0.703,0.05c0.225,0.039,0.451,0.086,0.688,0.086c0.225,0,0.471-0.047,0.693-0.086
	c0.242,0,0.472-0.014,0.707-0.05l-0.065,2.476L153.764,9.233z"/>
<path fill="#FFFFFF" d="M159.383,14.594c0.141,0.188,0.303,0.346,0.49,0.514c0.182,0.143,0.41,0.307,0.66,0.367
	c0.281,0.107,0.574,0.163,0.928,0.163c0.475,0,0.854-0.163,1.102-0.387c0.262-0.254,0.377-0.486,0.377-0.785
	c0-0.303-0.109-0.559-0.344-0.766c-0.226-0.158-0.502-0.319-0.861-0.486c-0.334-0.15-0.709-0.328-1.12-0.476
	c-0.392-0.172-0.763-0.387-1.122-0.653c-0.342-0.216-0.618-0.535-0.848-0.929c-0.229-0.372-0.359-0.846-0.359-1.456
	c0-0.568,0.131-1.04,0.329-1.493c0.196-0.382,0.474-0.708,0.815-0.968c0.34-0.278,0.717-0.482,1.149-0.587
	c0.428-0.122,0.851-0.223,1.271-0.223c0.562,0,1.069,0.111,1.521,0.266c0.408,0.169,0.889,0.385,1.341,0.709
	c-0.112,0.269-0.21,0.576-0.305,0.907c-0.087,0.295-0.136,0.571-0.196,0.872h-0.562c-0.032-0.169-0.112-0.327-0.191-0.523
	c-0.096-0.194-0.221-0.371-0.396-0.558c-0.153-0.208-0.363-0.332-0.578-0.436c-0.228-0.12-0.506-0.167-0.834-0.167
	c-0.406,0-0.748,0.09-1.033,0.326c-0.268,0.219-0.405,0.489-0.405,0.841c0,0.323,0.103,0.601,0.337,0.78
	c0.26,0.185,0.557,0.381,0.891,0.532c0.353,0.142,0.734,0.272,1.158,0.43c0.422,0.162,0.801,0.335,1.149,0.552
	c0.354,0.265,0.646,0.591,0.883,0.957c0.242,0.357,0.351,0.861,0.351,1.466c0,0.577-0.094,1.085-0.314,1.516
	c-0.223,0.423-0.52,0.772-0.882,1.068c-0.351,0.265-0.777,0.469-1.242,0.586c-0.476,0.125-0.951,0.181-1.466,0.181
	c-0.608,0-1.153-0.115-1.653-0.283c-0.468-0.155-0.866-0.339-1.142-0.537c0.162-0.661,0.242-1.306,0.291-1.954h0.509
	C159.164,14.19,159.264,14.376,159.383,14.594"/>
<path fill="#FFFFFF" d="M167.256,1.742c0.307-0.323,0.689-0.478,1.139-0.478c0.433,0,0.832,0.155,1.141,0.478
	c0.311,0.304,0.467,0.662,0.467,1.13c0,0.444-0.156,0.829-0.467,1.131c-0.309,0.319-0.708,0.476-1.141,0.476
	c-0.449,0-0.832-0.157-1.139-0.476c-0.314-0.303-0.482-0.687-0.482-1.131C166.773,2.404,166.939,2.046,167.256,1.742 M166.988,8.877
	c-0.018-0.717-0.049-1.439-0.119-2.177c0.184,0.034,0.418,0.053,0.68,0.056c0.254,0.039,0.525,0.059,0.846,0.059
	c0.619,0,1.143-0.059,1.512-0.115c-0.061,0.738-0.1,1.459-0.125,2.177c-0.032,0.724-0.032,1.529-0.032,2.336v0.804
	c0,0.816,0,1.622,0.032,2.329c0.025,0.755,0.064,1.443,0.125,2.11c-0.166-0.015-0.387-0.015-0.643-0.015h-0.869h-0.846
	c-0.262,0-0.496,0-0.68,0.015c0.07-0.667,0.102-1.354,0.119-2.11c0.02-0.708,0.025-1.513,0.025-2.329v-0.804
	C167.014,10.407,167.008,9.602,166.988,8.877"/>
<path fill="#FFFFFF" d="M181.324,13.151c0.018,1.118,0.061,2.235,0.113,3.297c-0.156-0.007-0.402-0.007-0.672-0.007h-0.85h-0.788
	c-0.239,0-0.438,0-0.565,0.007c0,0,0.03-0.096,0.037-0.229c0.008-0.157,0.03-0.318,0.047-0.512c0.021-0.217,0.035-0.388,0.043-0.557
	c0.006-0.154,0.017-0.229,0.017-0.303l-0.026-0.011c-0.259,0.592-0.617,1.066-1.066,1.396c-0.424,0.343-1.064,0.499-1.84,0.499
	c-0.682,0-1.276-0.119-1.772-0.414c-0.487-0.254-0.877-0.61-1.185-1.067c-0.305-0.485-0.563-1.057-0.688-1.706
	c-0.152-0.616-0.212-1.301-0.212-2.011c0-0.75,0.086-1.409,0.302-2.023c0.194-0.633,0.475-1.142,0.82-1.625
	c0.361-0.441,0.753-0.806,1.245-1.032c0.479-0.26,0.991-0.424,1.532-0.424c0.607,0,1.162,0.168,1.642,0.44
	c0.485,0.304,0.845,0.644,1.06,1.073h0.06c0-1.234-0.015-2.374-0.06-3.447c-0.016-1.066-0.063-2.167-0.129-3.347
	c0.205,0.057,0.414,0.061,0.683,0.086c0.266,0.029,0.556,0.029,0.847,0.029c0.301,0,0.582,0,0.866-0.029
	c0.252-0.026,0.498-0.029,0.655-0.086c-0.055,1.149-0.098,2.266-0.114,3.388C181.314,5.63,181.3,6.864,181.3,8.19v1.32
	C181.299,10.821,181.314,12.039,181.324,13.151 M175.043,13.544c0.104,0.476,0.225,0.896,0.383,1.169
	c0.172,0.283,0.348,0.504,0.582,0.62c0.188,0.141,0.404,0.213,0.633,0.213c0.575,0,1.039-0.314,1.398-0.947
	c0.35-0.639,0.537-1.691,0.537-3.158c0-1.234-0.188-2.161-0.516-2.752c-0.346-0.553-0.765-0.842-1.312-0.842
	c-0.215,0-0.415,0.046-0.641,0.2c-0.224,0.096-0.414,0.325-0.604,0.642c-0.173,0.28-0.313,0.684-0.427,1.22
	c-0.118,0.502-0.174,1.14-0.174,1.91C174.902,12.51,174.945,13.097,175.043,13.544"/>
<path fill="#FFFFFF" d="M185.549,6.82c0.633-0.241,1.297-0.391,1.941-0.391c0.555,0,1.041,0.101,1.496,0.198
	c0.461,0.126,0.841,0.296,1.184,0.593c0.318,0.278,0.585,0.604,0.771,0.986c0.183,0.436,0.271,0.969,0.271,1.562
	c0,0.861-0.009,1.662-0.022,2.41c-0.031,0.707-0.043,1.46-0.043,2.167c0,0.326,0.021,0.584,0.065,0.779
	c0.06,0.18,0.125,0.304,0.214,0.406c0.098,0.106,0.217,0.16,0.372,0.191c0.157,0.014,0.33,0.022,0.552,0.022v0.506
	c-0.402,0.138-0.74,0.297-1.005,0.362c-0.269,0.087-0.562,0.119-0.878,0.119c-0.492,0-0.902-0.119-1.209-0.36
	c-0.314-0.253-0.551-0.621-0.711-1.052c-0.294,0.417-0.68,0.77-1.074,1.034c-0.412,0.26-0.924,0.378-1.561,0.378
	c-0.493,0-0.949-0.067-1.329-0.184c-0.342-0.162-0.644-0.335-0.896-0.583c-0.246-0.257-0.397-0.544-0.528-0.856
	c-0.087-0.326-0.146-0.649-0.146-0.972c0-0.441,0.065-0.823,0.211-1.148c0.146-0.32,0.352-0.6,0.607-0.81
	c0.268-0.255,0.572-0.451,0.945-0.618c0.354-0.13,0.771-0.279,1.229-0.366c0.575-0.152,1.029-0.275,1.353-0.395
	c0.332-0.069,0.58-0.17,0.723-0.298c0.171-0.089,0.277-0.192,0.326-0.333c0.045-0.083,0.088-0.258,0.088-0.414
	c0-0.473-0.182-0.911-0.521-1.267c-0.343-0.343-0.818-0.494-1.427-0.494c-0.243,0-0.485,0.017-0.728,0.058
	c-0.229,0.086-0.476,0.156-0.691,0.275c-0.23,0.1-0.43,0.206-0.613,0.364c-0.186,0.116-0.32,0.266-0.416,0.409h-0.137l-0.275-1.213
	C184.252,7.404,184.887,7.067,185.549,6.82 M188.52,12.068c0.013-0.304,0.013-0.589,0.013-0.789
	c-0.278,0.144-0.593,0.271-0.898,0.368c-0.327,0.118-0.608,0.222-0.872,0.378c-0.257,0.17-0.479,0.381-0.654,0.651
	c-0.166,0.266-0.25,0.658-0.25,1.187c0,0.484,0.104,0.866,0.312,1.134c0.215,0.254,0.478,0.419,0.834,0.419
	c0.464,0,0.804-0.183,1.08-0.54c0.288-0.334,0.438-0.855,0.438-1.495C188.52,12.822,188.52,12.35,188.52,12.068"/>
<path fill="#FFFFFF" d="M202.777,13.151c0.033,1.118,0.061,2.235,0.115,3.297c-0.179-0.007-0.401-0.007-0.676-0.007h-0.859h-0.78
	c-0.238,0-0.44,0-0.571,0.007c0.023-0.007,0.041-0.096,0.041-0.229c0.018-0.157,0.018-0.318,0.055-0.512
	c0.018-0.217,0.023-0.388,0.047-0.557c0.019-0.154,0.019-0.229,0.019-0.303l-0.041-0.011c-0.246,0.592-0.608,1.066-1.056,1.396
	c-0.445,0.343-1.047,0.499-1.844,0.499c-0.693,0-1.268-0.119-1.766-0.414c-0.479-0.254-0.891-0.61-1.201-1.067
	c-0.309-0.485-0.533-1.057-0.674-1.706c-0.154-0.616-0.234-1.301-0.234-2.011c0-0.75,0.109-1.409,0.297-2.023
	c0.226-0.633,0.484-1.142,0.849-1.625c0.333-0.441,0.771-0.806,1.239-1.032c0.494-0.26,1.004-0.424,1.543-0.424
	c0.607,0,1.152,0.168,1.627,0.44c0.486,0.304,0.854,0.644,1.057,1.073h0.067c0-1.234-0.021-2.374-0.04-3.447
	c-0.027-1.066-0.069-2.167-0.127-3.347c0.185,0.057,0.392,0.061,0.669,0.086c0.265,0.029,0.553,0.029,0.847,0.029
	c0.303,0,0.562,0,0.84-0.029c0.273-0.026,0.497-0.029,0.676-0.086c-0.056,1.149-0.082,2.266-0.115,3.388
	c-0.018,1.094-0.037,2.328-0.037,3.654v1.32C202.74,10.821,202.76,12.039,202.777,13.151 M196.495,13.544
	c0.098,0.476,0.218,0.896,0.381,1.169c0.167,0.283,0.351,0.504,0.562,0.62c0.217,0.141,0.438,0.213,0.668,0.213
	c0.549,0,1.013-0.314,1.365-0.947c0.37-0.639,0.559-1.691,0.559-3.158c0-1.234-0.166-2.161-0.514-2.752
	c-0.328-0.553-0.77-0.842-1.301-0.842c-0.225,0-0.455,0.046-0.66,0.2c-0.218,0.096-0.424,0.325-0.597,0.642
	c-0.159,0.28-0.313,0.684-0.435,1.22c-0.114,0.502-0.18,1.14-0.18,1.91C196.346,12.51,196.393,13.097,196.495,13.544"/>
<path fill="#FFFFFF" d="M180.688,80.17c0.026,1.143,0.078,2.275,0.152,3.402c-0.214,0-0.473-0.025-0.788-0.025h-1.01h-0.938
	c-0.295,0-0.502,0.025-0.658,0.025c0.018,0,0.035-0.107,0.057-0.254c0.012-0.176,0.012-0.34,0.039-0.541
	c0.031-0.188,0.049-0.371,0.061-0.549c0.01-0.158,0.031-0.279,0.031-0.291l-0.054-0.074c-0.304,0.647-0.707,1.131-1.229,1.457
	c-0.514,0.354-1.231,0.531-2.158,0.531c-0.791,0-1.488-0.129-2.051-0.433c-0.572-0.271-1.054-0.644-1.401-1.144
	c-0.367-0.473-0.63-1.063-0.817-1.715c-0.163-0.653-0.244-1.352-0.244-2.108c0-0.767,0.117-1.445,0.354-2.084
	c0.216-0.642,0.549-1.185,0.977-1.679c0.401-0.469,0.882-0.812,1.449-1.086c0.563-0.283,1.168-0.405,1.804-0.405
	c0.697,0,1.338,0.155,1.914,0.422c0.551,0.33,0.979,0.68,1.245,1.135h0.026c0-1.284,0-2.457-0.045-3.565
	c-0.022-1.117-0.071-2.273-0.141-3.455c0.221,0.021,0.483,0.053,0.801,0.07c0.312,0.014,0.633,0.032,0.98,0.032
	c0.374,0,0.704-0.021,1.027-0.032c0.312-0.019,0.557-0.05,0.771-0.07c-0.075,1.164-0.126,2.338-0.151,3.461
	c-0.034,1.164-0.062,2.426-0.062,3.812v1.361C180.627,77.762,180.654,79.01,180.688,80.17 M173.359,80.562
	c0.099,0.498,0.266,0.905,0.451,1.196c0.185,0.312,0.399,0.519,0.656,0.681c0.241,0.096,0.485,0.164,0.738,0.164
	c0.67,0,1.197-0.326,1.622-0.968c0.401-0.637,0.618-1.729,0.618-3.225c0-1.308-0.202-2.267-0.588-2.854
	c-0.406-0.621-0.898-0.887-1.528-0.887c-0.238,0-0.489,0.068-0.756,0.184c-0.251,0.117-0.47,0.33-0.667,0.65
	c-0.211,0.314-0.396,0.719-0.506,1.275c-0.135,0.539-0.217,1.193-0.217,1.996C173.186,79.475,173.254,80.082,173.359,80.562"/>
<path fill="#FFFFFF" d="M186.637,80.135c0.124,0.494,0.322,0.926,0.586,1.23c0.26,0.395,0.582,0.65,0.994,0.873
	c0.42,0.207,0.895,0.283,1.434,0.283c1.088,0,2.076-0.316,2.918-0.92l0.291,0.188l-0.524,1.168
	c-0.387,0.283-0.858,0.483-1.427,0.649c-0.561,0.158-1.291,0.242-2.2,0.242c-0.771,0-1.517-0.117-2.203-0.279
	c-0.719-0.188-1.343-0.489-1.851-0.95c-0.534-0.435-0.967-0.97-1.264-1.621c-0.311-0.66-0.469-1.472-0.469-2.408
	c0-0.922,0.143-1.711,0.421-2.379c0.269-0.653,0.659-1.205,1.146-1.67c0.492-0.44,1.082-0.791,1.744-0.994
	c0.68-0.246,1.41-0.35,2.221-0.35c1.57,0,2.759,0.42,3.584,1.227c0.832,0.808,1.268,1.947,1.268,3.429v0.448
	c0,0.136-0.041,0.224-0.057,0.267h-6.787C186.461,79.117,186.518,79.635,186.637,80.135 M189.664,75.08
	c-0.252-0.654-0.709-0.955-1.316-0.955c-0.349,0-0.629,0.125-0.865,0.301c-0.26,0.246-0.444,0.484-0.59,0.816
	c-0.131,0.338-0.246,0.736-0.302,1.131c-0.073,0.436-0.122,0.832-0.13,1.232h3.645C190.07,76.557,189.93,75.729,189.664,75.08"/>
<path fill="#FFFFFF" d="M215.365,82.117c-0.096,0.289-0.154,0.555-0.191,0.877c-1.291,0.578-2.898,0.857-4.865,0.857
	c-1.389,0-2.623-0.177-3.703-0.531c-1.084-0.326-2.024-0.81-2.766-1.457c-0.752-0.613-1.349-1.357-1.726-2.197
	c-0.407-0.879-0.591-1.787-0.591-2.811c0-1.453,0.264-2.652,0.768-3.689c0.52-1,1.211-1.818,2.074-2.467
	c0.873-0.637,1.863-1.113,3.02-1.416c1.146-0.262,2.344-0.412,3.586-0.412c0.416,0,0.852,0.01,1.321,0.066
	c0.452,0.043,0.901,0.11,1.334,0.225c0.433,0.096,0.824,0.189,1.222,0.33c0.404,0.094,0.726,0.256,0.989,0.402
	c-0.174,0.332-0.271,0.686-0.364,1.071c-0.101,0.336-0.17,0.722-0.177,1.054h-0.335c-0.604-0.654-1.234-1.148-1.861-1.439
	c-0.641-0.27-1.385-0.408-2.242-0.408c-0.633,0-1.276,0.105-1.933,0.369c-0.631,0.262-1.227,0.646-1.747,1.146
	c-0.517,0.528-0.947,1.209-1.264,2.016c-0.316,0.795-0.493,1.777-0.493,2.885c0,1.064,0.177,1.984,0.502,2.762
	c0.328,0.746,0.769,1.387,1.304,1.863c0.52,0.477,1.115,0.822,1.801,1.064c0.69,0.234,1.353,0.326,2.043,0.326
	c0.392,0,0.769-0.029,1.179-0.099c0.399-0.062,0.771-0.209,1.157-0.317c0.398-0.172,0.734-0.324,1.076-0.506
	c0.358-0.203,0.647-0.402,0.896-0.621l0.312,0.149C215.572,81.49,215.453,81.805,215.365,82.117"/>
<path fill="#FFFFFF" d="M217.865,76.361c0.322-0.707,0.751-1.291,1.285-1.764c0.552-0.496,1.147-0.824,1.856-1.05
	c0.726-0.246,1.444-0.35,2.2-0.35c1.852,0,3.259,0.444,4.293,1.397c1.002,0.908,1.521,2.184,1.521,3.746
	c0,0.867-0.153,1.645-0.433,2.332c-0.292,0.658-0.685,1.27-1.21,1.764c-0.513,0.451-1.139,0.82-1.826,1.035
	c-0.726,0.26-1.494,0.377-2.347,0.377c-0.728,0-1.425-0.084-2.12-0.256c-0.701-0.188-1.309-0.453-1.872-0.844
	c-0.534-0.404-0.987-0.916-1.321-1.574c-0.334-0.666-0.531-1.424-0.531-2.391C217.361,77.854,217.529,77.033,217.865,76.361
	 M224.965,75.18c-0.345-0.709-0.904-1.055-1.727-1.055c-0.727,0-1.29,0.404-1.719,1.117c-0.406,0.803-0.643,1.963-0.643,3.545
	c0,0.609,0.053,1.146,0.13,1.672c0.106,0.523,0.22,0.906,0.397,1.301c0.183,0.373,0.422,0.686,0.707,0.889
	c0.279,0.181,0.664,0.293,1.109,0.293c1.487,0,2.271-1.629,2.271-4.938C225.493,76.781,225.314,75.82,224.965,75.18"/>
<path fill="#FFFFFF" d="M231.477,71.195c-0.047-1.123-0.062-2.297-0.115-3.461c0.195,0.021,0.453,0.053,0.769,0.07
	c0.318,0.014,0.662,0.032,1.013,0.032c0.342,0,0.676-0.021,0.998-0.032c0.307-0.019,0.568-0.05,0.783-0.07
	c-0.07,1.164-0.124,2.338-0.156,3.461c-0.041,1.164-0.065,2.426-0.065,3.812v1.361c0,1.393,0.024,2.641,0.065,3.801
	c0.032,1.144,0.086,2.287,0.156,3.414c-0.215-0.013-0.479-0.013-0.783-0.013h-0.998h-1.013c-0.313,0-0.573,0-0.769,0.013
	c0.055-1.127,0.068-2.271,0.115-3.414c0.024-1.16,0.041-2.408,0.041-3.801v-1.361C231.518,73.621,231.501,72.359,231.477,71.195"/>
<path fill="#FFFFFF" d="M237.743,76.361c0.325-0.707,0.755-1.291,1.297-1.764c0.534-0.496,1.17-0.824,1.856-1.05
	c0.719-0.246,1.422-0.35,2.179-0.35c1.844,0,3.284,0.444,4.304,1.397c1.004,0.908,1.535,2.184,1.535,3.746
	c0,0.867-0.156,1.645-0.454,2.332c-0.283,0.658-0.659,1.27-1.194,1.764c-0.514,0.451-1.127,0.82-1.832,1.035
	c-0.711,0.26-1.502,0.377-2.357,0.377c-0.721,0-1.41-0.084-2.104-0.256c-0.681-0.188-1.32-0.453-1.867-0.844
	c-0.545-0.404-0.986-0.916-1.334-1.574c-0.34-0.666-0.504-1.424-0.504-2.391C237.268,77.854,237.418,77.033,237.743,76.361
	 M244.857,75.18c-0.361-0.709-0.928-1.055-1.73-1.055c-0.729,0-1.302,0.404-1.71,1.117c-0.429,0.803-0.632,1.963-0.632,3.545
	c0,0.609,0.031,1.146,0.111,1.672c0.076,0.523,0.213,0.906,0.396,1.301c0.171,0.373,0.413,0.686,0.697,0.889
	c0.314,0.181,0.669,0.293,1.121,0.293c1.494,0,2.265-1.629,2.265-4.938C245.377,76.781,245.18,75.82,244.857,75.18"/>
<path fill="#FFFFFF" d="M254.295,75.061c0.443-0.617,0.953-1.035,1.548-1.356c0.606-0.315,1.278-0.504,2.042-0.504
	c0.715,0,1.338,0.19,1.84,0.536c0.521,0.312,0.918,0.818,1.211,1.449c0.467-0.631,1.028-1.139,1.65-1.449
	c0.631-0.346,1.325-0.536,2.021-0.536c1.19,0,2.105,0.299,2.746,0.901c0.647,0.64,0.963,1.617,0.963,2.957
	c0,0.728,0,1.354-0.045,1.896c-0.021,0.557-0.045,1.116-0.045,1.608c0,0.498,0.022,0.982,0.045,1.508
	c0.045,0.521,0.053,1.027,0.067,1.515c-0.196-0.012-0.44-0.012-0.771-0.012h-1h-1.006c-0.313,0-0.568,0-0.78,0.012
	c0.102-0.752,0.188-1.584,0.212-2.584c0.033-0.979,0.061-2.11,0.061-3.396c0-0.9-0.181-1.549-0.521-1.949
	c-0.329-0.422-0.795-0.617-1.396-0.617c-0.383,0-0.682,0.07-0.945,0.205c-0.23,0.16-0.426,0.4-0.588,0.635
	c-0.123,0.248-0.225,0.496-0.287,0.785c-0.026,0.297-0.049,0.543-0.049,0.805v1.486c0,0.887,0,1.703,0.029,2.412
	c0.004,0.787,0.065,1.52,0.154,2.219c-0.208-0.012-0.446-0.012-0.766-0.012h-1.023h-1.002c-0.286,0-0.562,0-0.779,0.012
	c0.068-0.699,0.139-1.432,0.168-2.219c0.016-0.709,0.016-1.525,0.016-2.412V77.67c0-0.814-0.114-1.473-0.355-1.941
	c-0.225-0.485-0.702-0.69-1.348-0.69c-0.725,0-1.229,0.285-1.568,0.825c-0.326,0.535-0.501,1.31-0.501,2.273v0.816
	c0,0.887,0.009,1.703,0.038,2.412c0.02,0.787,0.073,1.52,0.139,2.219c-0.195-0.012-0.462-0.012-0.768-0.012h-1.005h-1.023
	c-0.288,0-0.565,0-0.78,0.012c0.101-0.699,0.145-1.408,0.172-2.199c0.01-0.729,0.035-1.523,0.035-2.432v-0.816
	c0-0.854-0.025-1.658-0.035-2.408c-0.027-0.756-0.071-1.506-0.172-2.274c0.293,0.026,0.574,0.078,0.852,0.096
	c0.271,0.011,0.539,0.019,0.845,0.019c0.29,0,0.577-0.008,0.854-0.019c0.281-0.018,0.563-0.067,0.888-0.096l-0.091,1.606H254.295z"
	/>
<path fill="#FFFFFF" d="M270.992,71.195c-0.029-1.123-0.077-2.297-0.146-3.461c0.205,0.021,0.459,0.053,0.769,0.07
	c0.329,0.014,0.667,0.032,1.016,0.032c0.351,0,0.677-0.021,0.983-0.032c0.313-0.019,0.589-0.05,0.791-0.07
	c-0.055,1.164-0.09,2.338-0.135,3.461c-0.02,1.164-0.028,2.426-0.028,3.812h0.042c0.275-0.59,0.697-1.057,1.255-1.362
	c0.562-0.289,1.198-0.445,1.899-0.445c0.676,0,1.303,0.123,1.869,0.406c0.549,0.272,1.034,0.612,1.446,1.069
	c0.407,0.437,0.7,0.976,0.937,1.562c0.209,0.617,0.326,1.269,0.326,1.994c0,1.041-0.172,1.938-0.492,2.658
	c-0.312,0.713-0.74,1.297-1.252,1.73c-0.521,0.473-1.092,0.787-1.735,0.951c-0.617,0.176-1.248,0.279-1.865,0.279
	c-0.755,0-1.409-0.129-1.921-0.388c-0.539-0.274-0.945-0.627-1.286-1.021c-0.351,0.156-0.685,0.384-1.021,0.576
	c-0.332,0.238-0.676,0.443-1.027,0.617h-0.568c0.068-1.133,0.116-2.309,0.146-3.459c0.034-1.17,0.059-2.418,0.059-3.811v-1.361
	C271.051,73.621,271.027,72.359,270.992,71.195 M274.314,80.34c0.063,0.514,0.166,0.99,0.318,1.35
	c0.15,0.396,0.354,0.709,0.609,0.914c0.255,0.226,0.592,0.338,1.023,0.338c0.684,0,1.221-0.352,1.615-1.104
	c0.407-0.762,0.613-1.971,0.613-3.692c0-2.414-0.68-3.613-2.027-3.613c-0.336,0-0.642,0.068-0.918,0.209
	c-0.277,0.117-0.5,0.342-0.721,0.664c-0.186,0.326-0.336,0.756-0.428,1.289c-0.109,0.545-0.162,1.162-0.162,1.936
	C274.24,79.219,274.27,79.789,274.314,80.34"/>
<path fill="#FFFFFF" d="M284.777,68.307c0.356-0.322,0.82-0.469,1.341-0.469c0.526,0,0.979,0.146,1.34,0.469
	c0.366,0.332,0.544,0.732,0.544,1.217c0,0.441-0.178,0.841-0.544,1.177c-0.36,0.323-0.812,0.479-1.34,0.479
	c-0.521,0-0.983-0.154-1.341-0.479c-0.369-0.336-0.562-0.734-0.562-1.177C284.215,69.039,284.408,68.639,284.777,68.307
	 M284.484,75.729c-0.043-0.756-0.086-1.51-0.168-2.274c0.219,0.019,0.475,0.078,0.783,0.096c0.301,0.011,0.646,0.019,1.019,0.019
	c0.731,0,1.356-0.019,1.808-0.113c-0.102,0.766-0.164,1.52-0.182,2.275c-0.021,0.75-0.025,1.553-0.025,2.408v0.815
	c0,0.907,0.004,1.703,0.025,2.412c0.018,0.811,0.08,1.52,0.182,2.219c-0.207-0.012-0.468-0.012-0.789-0.012h-1.019H285.1
	c-0.309,0-0.563,0-0.781,0.012c0.082-0.699,0.125-1.408,0.166-2.219c0.013-0.709,0.029-1.505,0.029-2.412v-0.815
	C284.514,77.281,284.496,76.479,284.484,75.729"/>
<path fill="#FFFFFF" d="M292.989,73.566c0.774-0.254,1.532-0.367,2.304-0.367c0.629,0,1.207,0.053,1.762,0.209
	c0.535,0.123,0.992,0.328,1.393,0.574c0.394,0.283,0.687,0.615,0.937,1.078c0.188,0.424,0.298,0.942,0.298,1.575
	c0,0.869-0.012,1.707-0.027,2.48c-0.033,0.758-0.033,1.538-0.033,2.248c0,0.342,0.033,0.62,0.062,0.819
	c0.059,0.164,0.129,0.326,0.265,0.416c0.101,0.113,0.27,0.172,0.43,0.201c0.19,0.025,0.396,0.025,0.625,0.025v0.498
	c-0.444,0.201-0.831,0.312-1.151,0.396c-0.33,0.075-0.658,0.129-1.039,0.129c-0.588,0-1.066-0.129-1.437-0.388
	c-0.353-0.233-0.63-0.633-0.83-1.103c-0.371,0.466-0.794,0.8-1.274,1.08c-0.508,0.279-1.096,0.408-1.83,0.408
	c-0.606,0-1.129-0.082-1.564-0.213c-0.428-0.146-0.786-0.32-1.062-0.582c-0.278-0.279-0.486-0.551-0.614-0.881
	c-0.128-0.34-0.191-0.686-0.191-1.023c0-0.438,0.08-0.84,0.244-1.203c0.17-0.36,0.411-0.6,0.728-0.846
	c0.299-0.215,0.684-0.44,1.108-0.615c0.425-0.145,0.905-0.271,1.453-0.397c0.672-0.137,1.194-0.271,1.586-0.353
	c0.415-0.133,0.701-0.231,0.884-0.321c0.18-0.097,0.327-0.236,0.365-0.356c0.062-0.101,0.086-0.277,0.086-0.443
	c0-0.521-0.213-0.961-0.591-1.297c-0.421-0.381-0.979-0.562-1.709-0.562c-0.267,0-0.541,0.053-0.822,0.107
	c-0.278,0.047-0.562,0.154-0.827,0.268c-0.25,0.102-0.5,0.229-0.709,0.367c-0.217,0.152-0.378,0.295-0.498,0.439h-0.166
	l-0.293-1.263C291.503,74.203,292.221,73.82,292.989,73.566 M296.518,79.01c0.019-0.303,0.025-0.598,0.025-0.85
	c-0.342,0.184-0.689,0.299-1.068,0.432c-0.385,0.115-0.742,0.217-1.054,0.396c-0.294,0.145-0.562,0.381-0.753,0.648
	c-0.206,0.278-0.314,0.702-0.314,1.235c0,0.492,0.137,0.918,0.383,1.162c0.25,0.303,0.582,0.422,0.984,0.422
	c0.54,0,0.965-0.181,1.295-0.511c0.323-0.346,0.484-0.887,0.484-1.555C296.5,79.768,296.5,79.316,296.518,79.01"/>
<path fill="#FFFFFF" d="M20.771,53.209c-2.357,0.09-4.768,0.172-7.188,0.174c-0.135-2.369-0.214-4.836-0.214-7.388
	c0-1.444,0.012-2.802,0.079-4.183c0.007-1.144,0.027-2.275,0.027-3.401c5.415,0.027,14.97,0.483,15.066,0.495l0.839,0.065v-7.344
	l-0.839,0.079l-7.652,0.41c-2.193,0.087-4.689,0.156-7.394,0.222l0.025-6.348c0.019-2.105,0.089-4.218,0.208-6.382
	c0.457,0.005,1.064,0.017,1.807,0.062c1.188,0.019,2.563,0.105,4.063,0.172l4.693,0.282l4.438,0.275l0.833,0.022v-0.813v-6.584H1
	v46.68h28.648v-7.24l-0.862,0.101C28.721,52.562,23.401,53.057,20.771,53.209 M67.44,26.561h-8.31l-0.242,0.327l-6.559,9.417
	l-5.396-9.362l-0.25-0.382h-0.427c-3.655,0.021-10.791,0.054-11.655,0l-1.638-0.098l0.958,1.355
	c0.4,0.556,9.004,13.948,10.826,16.895c-1.913,2.471-10.781,13.562-10.866,13.727l-1.029,1.264h8.085l0.233-0.346
	c0.063-0.104,4.654-7.021,6.688-9.961l5.82,9.938l0.229,0.367H67.29l-0.793-1.205L55.334,41.191L66.39,27.854L67.44,26.561z
	 M89.615,55.213c-0.249,0.08-0.748,0.156-1.75,0.156c-0.677,0-1.217-0.088-1.623-0.322c-0.276-0.146-0.516-0.494-0.841-1.143
	c-0.626-1.5-0.346-18.336-0.186-22.184l5.357,0.173l0.827,0.032v-4.986l-0.81,0.004l-5.322,0.129
	c0.101-2.604,0.532-10.17,0.59-10.72l0.077-0.488l-0.416-0.283l-0.694-0.458l-0.366-0.238l-0.381,0.191l-9.659,4.058l-0.484,0.212
	v0.53c0.009,0.06,0.191,5.025,0.244,7.241l-4.067-0.176l-0.806-0.012v4.961h0.79l4.088-0.047l0.028,11.671l0.002,6.202
	c0,7.267,3.031,10.775,9.229,10.775c1.4,0,2.839-0.185,4.291-0.482c1.477-0.317,2.657-0.663,3.647-1.082l0.483-0.213v-4.481
	l-1.16,0.592C90.335,54.984,89.964,55.146,89.615,55.213 M110.154,25.649c-2.397,0-4.667,0.343-6.741,1.086
	c-2.067,0.737-3.887,1.867-5.409,3.347c-1.538,1.474-2.737,3.319-3.587,5.52c-0.849,2.161-1.28,4.748-1.28,7.682
	c0,2.987,0.481,5.597,1.432,7.802c0.959,2.152,2.281,3.961,3.93,5.406c1.652,1.42,3.578,2.438,5.739,3.082
	c2.11,0.609,4.381,0.92,6.739,0.92c2.717,0,4.959-0.273,6.665-0.791c1.688-0.525,3.183-1.256,4.42-2.127l0.169-0.121l0.107-0.207
	l1.534-3.686l0.251-0.586l-0.53-0.349l-0.854-0.586l-0.465-0.351l-0.449,0.379c-2.375,1.843-5.115,2.755-8.13,2.755
	c-1.45,0-2.717-0.265-3.802-0.822c-1.074-0.569-1.954-1.375-2.656-2.369c-0.709-1.022-1.245-2.245-1.597-3.683
	c-0.297-1.198-0.461-2.5-0.495-3.896h19.588l0.234-0.361c0.173-0.272,0.251-0.659,0.251-1.246V41.09
	c0-4.852-1.301-8.682-3.877-11.397C118.732,27.023,114.99,25.649,110.154,25.649 M105.145,39.466
	c0.067-0.957,0.175-1.929,0.33-2.919c0.207-1.202,0.51-2.337,0.889-3.3c0.387-0.892,0.89-1.664,1.499-2.243
	c0.555-0.504,1.234-0.76,2.057-0.76c1.495,0,2.507,0.773,3.146,2.458c0.671,1.674,1.084,3.968,1.208,6.765L105.145,39.466
	L105.145,39.466z M144.278,28.232c-1.177,0.965-2.25,2.275-3.2,3.972l0.111-4.828l0.022-0.913l-0.899,0.098
	c-0.747,0.066-8.628,0.066-9.377,0l-0.941-0.098l0.065,0.956c0.175,2.276,0.175,29.324,0,31.437l-0.065,0.978l0.976-0.129
	c0.656-0.074,9.54-0.074,10.208,0l0.973,0.123c0.021,0-0.088-0.988-0.088-0.988c-0.224-2.159-0.377-4.437-0.465-6.766
	c-0.064-2.363-0.093-4.902-0.093-7.552V41.9c0-1.566,0.547-2.9,1.605-4.039c1.073-1.125,2.499-1.701,4.388-1.701
	c0.671,0,1.271,0.081,1.777,0.246c0.525,0.155,1,0.35,1.415,0.556l0.457,0.268l0.431-0.338l0.636-0.517l0.338-0.282l-0.073-0.435
	c-0.043-0.307-0.056-0.631-0.056-1.002v-3.232c0-0.965,0.033-1.833,0.097-2.54c0.082-0.714,0.181-1.405,0.315-2.013l0.207-0.952
	h-2.105C148.377,25.919,146.14,26.685,144.278,28.232 M189.593,54.111c-0.065-1.648-0.093-3.164-0.093-4.555
	c0-1.671,0.025-3.395,0.116-5.08c0.077-1.73,0.134-3.723,0.134-5.944c0-4.453-1.043-7.726-3.072-9.81
	c-2.023-2.038-4.925-3.074-8.615-3.074c-2.364,0-4.504,0.535-6.36,1.613c-1.24,0.743-2.386,1.629-3.408,2.757l0.144-2.677
	l0.058-0.933l-0.921,0.076c-0.895,0.088-9.157,0.088-9.973,0.019l-0.963-0.105l0.103,0.985c0.271,2.329,0.467,4.697,0.536,6.993
	c0.07,2.352,0.13,4.836,0.13,7.524v2.622c0,2.648-0.06,5.188-0.13,7.543c-0.069,2.318-0.267,4.595-0.536,6.75l-0.119,1.019
	l1.005-0.129c0.688-0.074,9.662-0.074,10.339,0l0.993,0.123c0.025,0-0.088-0.988-0.088-0.988c-0.239-2.172-0.387-4.45-0.447-6.766
	c-0.074-2.363-0.113-4.902-0.113-7.552V41.9c0-2.9,0.465-5.145,1.369-6.721c0.82-1.458,2.127-2.158,3.947-2.158
	c1.562,0,2.744,0.543,3.591,1.622c0.89,1.14,1.36,3.048,1.36,5.594c0,3.921-0.066,7.48-0.155,10.621
	c-0.094,3.013-0.315,5.703-0.626,7.939l-0.161,1.053l1.05-0.156c0.666-0.063,9.631-0.063,10.291,0.011l0.961,0.123l-0.057-0.972
	C189.771,57.32,189.684,55.752,189.593,54.111 M224.395,55.641c-0.383-0.062-0.65-0.168-0.881-0.358
	c-0.212-0.234-0.382-0.562-0.515-1.013c-0.14-0.51-0.204-1.258-0.204-2.227c0-2.381,0.043-4.744,0.12-7.098
	c0.084-2.426,0.129-5.077,0.129-7.822c0-2.013-0.329-3.784-1.026-5.244c-0.699-1.475-1.666-2.682-2.908-3.635
	c-1.243-0.876-2.711-1.56-4.397-1.981c-1.631-0.425-3.428-0.614-5.333-0.614c-2.322,0-4.688,0.413-7.027,1.209
	c-2.32,0.825-4.529,1.965-6.533,3.484l-0.422,0.319l0.125,0.487l0.901,3.94l0.132,0.574h1.553l0.221-0.318
	c0.279-0.379,0.683-0.78,1.219-1.135c0.604-0.379,1.266-0.734,1.997-1.086c0.705-0.312,1.47-0.583,2.274-0.747
	c0.764-0.196,1.521-0.288,2.263-0.288c1.892,0,3.358,0.509,4.385,1.476c1.042,0.953,1.552,2.095,1.552,3.475
	c0,0.449-0.074,0.836-0.201,1.142c-0.1,0.216-0.344,0.468-0.744,0.697c-0.498,0.284-1.305,0.594-2.362,0.903
	c-1.127,0.336-2.681,0.717-4.583,1.149c-1.609,0.328-3.089,0.808-4.359,1.302c-1.332,0.537-2.484,1.191-3.453,1.997
	c-0.985,0.799-1.783,1.828-2.307,2.992c-0.531,1.146-0.8,2.498-0.8,4.055c0,1.152,0.198,2.306,0.608,3.402
	c0.388,1.146,1.051,2.148,1.959,3.051c0.903,0.877,2.047,1.607,3.414,2.066c1.326,0.461,2.947,0.699,4.799,0.699
	c2.266,0,4.199-0.463,5.731-1.371c1.167-0.664,2.196-1.52,3.132-2.529c0.584,1.033,1.303,1.914,2.172,2.566
	c1.211,0.885,2.783,1.334,4.682,1.334c1.139,0,2.216-0.129,3.209-0.436c0.984-0.265,2.16-0.673,3.498-1.195l0.518-0.182V55.79
	h-0.792C225.473,55.791,224.889,55.693,224.395,55.641 M212.198,44.551c-0.044,0.973-0.06,2.381-0.06,4.297
	c0,1.953-0.425,3.426-1.244,4.369c-0.813,0.895-1.84,1.346-3.178,1.346c-0.969,0-1.74-0.323-2.309-0.981
	c-0.604-0.69-0.906-1.783-0.906-3.215c0-1.484,0.25-2.599,0.756-3.353c0.52-0.756,1.197-1.386,1.987-1.818
	c0.87-0.475,1.848-0.867,2.887-1.174c0.736-0.184,1.437-0.478,2.12-0.756C212.248,43.654,212.232,44.073,212.198,44.551
	 M261.332,20.345c0.088-3.552,0.244-7.194,0.407-10.835l0.036-0.928l-0.922,0.108c-0.607,0.055-9.58,0.055-10.199,0l-0.906-0.083
	c-0.008,0,0.029,0.904,0.029,0.904c0.16,3.676,0.297,7.307,0.385,10.754c0.062,2.805,0.107,5.808,0.135,8.879
	c-0.724-0.769-1.599-1.436-2.621-2.005c-1.775-0.998-3.826-1.489-6.037-1.489c-2.004,0-3.896,0.425-5.658,1.294
	c-1.77,0.91-3.31,2.116-4.564,3.669c-1.294,1.523-2.307,3.372-3.025,5.451c-0.75,2.025-1.101,4.336-1.101,6.801
	c0,2.408,0.262,4.695,0.778,6.797c0.543,2.135,1.377,4.037,2.49,5.643c1.146,1.621,2.625,2.908,4.407,3.818
	c1.777,0.908,3.949,1.371,6.423,1.371c2.86,0,5.142-0.594,6.807-1.727c0.841-0.603,1.584-1.312,2.261-2.162
	c-0.072,0.539-0.103,0.971-0.144,1.328c-0.055,0.397-0.088,0.563-0.088,0.606l-0.711,1.399l1.562-0.289
	c0.637-0.077,9.125-0.077,9.777,0.021l0.922,0.06c0.016,0-0.036-0.902-0.036-0.902c-0.163-3.518-0.319-7.068-0.407-10.639
	c-0.062-3.547-0.114-7.521-0.114-11.785V32.12C261.218,27.854,261.271,23.885,261.332,20.345 M248.562,52.404
	c-1.097,1.83-2.434,2.695-4.078,2.695c-0.661,0-1.282-0.175-1.883-0.537c-0.609-0.328-1.164-0.937-1.635-1.763
	c-0.511-0.848-0.933-2.018-1.246-3.459c-0.312-1.461-0.461-3.34-0.461-5.504c0-2.433,0.18-4.492,0.559-6.087
	c0.393-1.59,0.865-2.844,1.412-3.762c0.533-0.865,1.125-1.449,1.731-1.785c0.63-0.333,1.272-0.497,1.881-0.497
	c1.54,0,2.788,0.767,3.815,2.439c1.09,1.698,1.639,4.584,1.639,8.474C250.297,47.227,249.706,50.521,248.562,52.404 M296.291,30.177
	c-3.102-2.981-7.536-4.528-13.164-4.528c-2.271,0-4.507,0.351-6.658,1.132c-2.154,0.749-4.072,1.9-5.744,3.422
	c-1.647,1.527-3.004,3.466-3.994,5.756c-1.006,2.293-1.485,4.97-1.485,8.005c0,3.027,0.521,5.65,1.573,7.795
	c1.047,2.08,2.445,3.81,4.16,5.146c1.713,1.308,3.637,2.218,5.771,2.767c2.067,0.55,4.226,0.822,6.379,0.822
	c2.584,0,4.99-0.396,7.164-1.146c2.19-0.808,4.108-2.013,5.716-3.558c1.583-1.606,2.807-3.541,3.674-5.769
	c0.887-2.246,1.319-4.75,1.319-7.505C301,37.39,299.411,33.242,296.291,30.177 M283.198,56.154c-1.136,0-2.03-0.279-2.742-0.812
	c-0.749-0.592-1.358-1.42-1.851-2.403c-0.485-1.127-0.854-2.404-1.073-3.879c-0.21-1.521-0.341-3.215-0.341-5.004
	c0-4.882,0.603-8.456,1.746-10.716c1.1-2.082,2.502-3.099,4.317-3.099c2.052,0,3.472,0.905,4.345,2.731
	c0.95,2,1.438,4.9,1.438,8.593C289.037,51.266,287.079,56.154,283.198,56.154"/>
</svg>
